<?xml version="1.0" encoding="utf-8" ?><svg xmlns="http://www.w3.org/2000/svg" xmlns:xlink="http://www.w3.org/1999/xlink" width="1685" height="1258" viewBox="0 0 1685 1258"><path fill="#FEFEFE" d="M388.783 244.695C393.215 244.208 405.132 244.496 410.27 244.489L454.234 244.437L514.632 244.276C535.654 244.215 577.401 241.284 591.278 260.682C605.691 280.83 618.823 306.225 631.015 328.151C656.742 374.678 682.767 421.04 709.088 467.233C719.925 486.308 730.741 506.698 741.822 525.364C750.694 540.309 768.209 552.9 785.516 555.779C797.917 557.842 808.991 556.556 822.339 556.6C850.374 556.692 884.867 560.937 911.133 549.236C917.349 546.466 929.089 534.809 932.815 529.306C948.271 506.486 962.372 481.076 976.532 457.367L1053.39 329.101C1066.78 306.379 1079.19 281.675 1096.23 261.537C1112.29 242.552 1137.22 244.429 1159.5 244.463L1204.54 244.486L1260.2 244.427C1290.84 244.352 1322.7 241.197 1341.38 270.939C1349.3 283.426 1355.87 303.512 1351.04 318.346C1343.49 341.532 1324.92 366.222 1311.56 386.868L1216.83 534.357C1200.93 559.186 1184.16 584.17 1169.07 609.493C1167 612.975 1162.45 623.454 1161.94 627.376C1158.11 656.891 1185.22 691.546 1200.37 714.022C1232.74 761.838 1263.64 813.851 1295.13 862.451C1310.33 887.537 1327.67 911.119 1342.18 936.613C1354.12 957.583 1357.15 976.097 1340.84 995.841C1322.66 1017.86 1293.26 1013.9 1267.62 1013.79L1205.68 1013.66L1127.26 1013.81C1092.79 1013.88 1050.21 1018.4 1025.66 988.811C1016.02 977.184 1007.35 962.683 999.221 949.844L967.154 899.624L850.604 719.126C837.988 699.61 825.656 680.055 812.741 660.669C787.13 622.228 748.359 629.356 706.798 629.425L604.621 629.592C570.189 629.654 532.765 634.134 511.372 600.776C499.895 582.881 488.644 564.793 477.275 546.824L410.669 441.59L362.968 366.779C352.031 349.466 334.366 325.743 332.558 305.506C331.323 290.474 336.137 275.571 345.931 264.102C357.659 250.386 371.415 246.01 388.783 244.695Z"/><path fill="#FEFEFE" d="M721.153 659.467C740.298 658.852 767.164 657.16 781.612 671.006C794.133 683.005 795.86 702.253 787.166 716.746C775.62 735.996 763.623 755.047 751.807 773.991L682.341 885.502L639.986 953.794C631.714 967.365 619.211 989.124 609.441 1000.99C594.85 1018.71 547.187 1013.74 525.351 1013.71L407.673 1013.75C386.85 1013.86 364.183 1016.73 348.206 1001.47C341.338 994.781 337.389 985.651 337.218 976.065C336.899 959.243 351.579 942.912 360.011 929.066C366.745 918.008 373.902 906.915 380.883 896.004L457.778 776.054L502.57 706.165C509.988 694.615 517.861 681.264 526.569 670.787C534.74 660.955 551.195 659.58 563.068 659.664C576.783 659.76 590.759 659.726 604.602 659.716L721.153 659.467Z"/></svg>